<svg width="18" height="18" viewBox="0 0 18 18" fill="none" xmlns="http://www.w3.org/2000/svg">
<path d="M2.65314 17.1998C2.9248 17.0683 3.2227 17 3.52452 17H14.2959C14.5718 17 14.8448 17.0571 15.0976 17.1677L17 18H1L2.65314 17.1998Z" fill="white"/>
<path d="M9 1C4.5816 1 1 4.53447 1 8.89474V12.0526C1 12.262 1.08429 12.4628 1.23431 12.6109C1.38434 12.7589 1.58783 12.8421 1.8 12.8421H2.6V13.6316C2.6 14.2597 2.85286 14.8621 3.30294 15.3063C3.75303 15.7505 4.36348 16 5 16C5.63652 16 6.24697 15.7505 6.69706 15.3063C7.14714 14.8621 7.4 14.2597 7.4 13.6316V10.4737C7.4 9.84554 7.14714 9.24312 6.69706 8.79896C6.24697 8.35479 5.63652 8.10526 5 8.10526C4.36348 8.10526 3.75303 8.35479 3.30294 8.79896C2.85286 9.24312 2.6 9.84554 2.6 10.4737V8.89474C2.6 7.21969 3.27428 5.61324 4.47452 4.4288C5.67475 3.24436 7.30261 2.57895 9 2.57895C10.6974 2.57895 12.3253 3.24436 13.5255 4.4288C14.7257 5.61324 15.4 7.21969 15.4 8.89474V10.4737C15.4 9.84554 15.1471 9.24312 14.6971 8.79896C14.247 8.35479 13.6365 8.10526 13 8.10526C12.3635 8.10526 11.753 8.35479 11.3029 8.79896C10.8529 9.24312 10.6 9.84554 10.6 10.4737V13.6316C10.6 14.2597 10.8529 14.8621 11.3029 15.3063C11.753 15.7505 12.3635 16 13 16C13.6365 16 14.247 15.7505 14.6971 15.3063C15.1471 14.8621 15.4 14.2597 15.4 13.6316V12.8421H16.2C16.4122 12.8421 16.6157 12.7589 16.7657 12.6109C16.9157 12.4628 17 12.262 17 12.0526V8.89474C17 4.53447 13.4184 1 9 1Z" fill="white"/>
</svg>
