<svg width="18" height="18" viewBox="0 0 18 18" fill="none" xmlns="http://www.w3.org/2000/svg">
<g clip-path="url(#clip0_179_2742)">
<path d="M7.58232 0C9.09668 0.302992 9.85982 0.579911 10.0508 2.26182C11.3432 2.27208 12.7817 2.09141 13.6935 3.18422C15.027 3.52659 15.1977 4.31104 15.221 5.62104C15.2412 6.7561 14.7675 7.42813 13.9757 8.18842C14.5628 8.63533 14.7812 9.63177 14.9477 10.3442C15.0252 10.7535 15.0992 11.2124 15.2275 11.6044C15.5855 12.0149 16.4686 11.8699 16.9382 12.1796C17.934 12.8353 18.3416 14.0639 17.6697 15.0937C16.7854 16.4482 14.9542 16.1821 13.6064 15.9261C13.4315 15.8927 12.919 16.0627 12.7239 16.0914C12.2817 16.237 11.9565 16.0144 11.5263 16.0275C11.1868 16.2954 10.8957 16.8229 10.432 16.9214C9.26733 17.169 7.85022 17.1457 7.48029 15.7942C5.70935 16.0687 4.23199 16.2262 2.4348 16.1176C-0.0193233 15.9691 -0.945962 14.3897 1.20207 12.7058C1.24742 12.0638 1.02247 11.3066 1.09646 10.4534C1.05648 10.0763 1.9503 7.161 1.96522 7.1854C1.16567 5.86556 0.207412 4.54381 1.09049 2.9761C1.4306 2.37191 2.01653 2.18616 2.66631 2.06676C2.77491 1.3347 3.00402 0.787794 3.71884 0.441006C4.56731 0.0291805 5.4331 0.434621 6.25353 0.723829C6.75414 0.236047 6.91583 0.22787 7.58232 0Z" fill="#3D2A1E"/>
<path d="M2.64952 7.42855C3.84346 8.25405 4.57558 8.40799 5.98851 8.65919C8.2523 9.06075 9.9755 8.96469 12.2327 8.65501C12.4672 8.73079 13.0305 8.65263 13.0687 8.73497C13.2787 9.18606 13.2339 10.4045 13.077 10.8448C12.7638 10.9468 12.7136 10.7416 12.2769 10.8878L12.2405 10.9659C11.3866 11.2583 10.5489 11.9505 10.1539 12.7548C10.1271 12.8085 10.1014 12.8628 10.0769 12.9177C8.34598 13.1533 8.00885 13.5263 7.44201 15.1128C6.97123 15.1236 6.46943 15.182 6.05057 14.9708L6.00462 14.9058C4.59468 14.9279 2.8142 15.836 1.26045 14.87C1.00746 14.7751 0.844574 14.7327 0.732399 14.466C0.724045 13.975 1.24673 13.691 1.67753 13.642C1.91023 13.5901 2.25451 13.5448 2.49736 13.5048C2.36669 12.9899 2.24318 12.5919 2.07253 12.0877C1.56595 10.3842 2.32254 9.0172 2.64952 7.42855Z" fill="#C6AB88"/>
<path d="M2.07261 12.0877C2.33216 11.843 2.42107 10.8299 2.48909 10.411C2.82919 11.3233 3.04877 12.0453 3.25641 13.006C3.47659 13.1152 3.53208 13.0925 3.62218 13.2673C3.3656 13.645 2.12154 13.7071 1.67761 13.642C1.91032 13.5901 2.2546 13.5448 2.49744 13.5048C2.36677 12.9899 2.24326 12.5919 2.07261 12.0877Z" fill="#B19578"/>
<path d="M1.26062 14.87C1.85193 14.8879 2.53095 14.7757 3.13597 14.7489C3.86571 14.7166 5.50895 14.111 6.00479 14.9058C4.59484 14.9279 2.81436 15.836 1.26062 14.87Z" fill="#A1876D"/>
<path d="M5.97848 9.34298C6.3168 9.38475 6.88125 9.47365 7.12947 9.70397L7.12171 9.81794L6.95166 9.90804C6.60201 9.90684 5.86094 9.96949 5.66821 9.67533C5.76726 9.45218 5.75532 9.51065 5.97848 9.34298Z" fill="#946743"/>
<path d="M3.70088 9.26721C4.02786 9.29526 4.39004 9.35672 4.45746 9.72844C4.33455 9.93967 4.38884 9.86925 4.15316 9.99814C3.90971 9.96592 3.72236 9.95279 3.48966 9.86627L3.4646 9.77021C3.60303 9.57092 3.60959 9.55779 3.68417 9.3227L3.70088 9.26721Z" fill="#907257"/>
<path d="M13.3223 8.44439C13.4989 8.7481 13.5992 8.90443 13.8092 9.19023L13.9894 9.47664C14.4303 10.315 14.4542 10.5495 14.5992 11.5167C14.3844 11.7267 14.2507 11.67 13.9643 11.6151C13.3539 10.9713 13.1433 10.9964 12.2405 10.9659L12.2769 10.8878C12.7137 10.7416 12.7638 10.9468 13.0771 10.8448C13.234 10.4045 13.2788 9.18606 13.0687 8.73497C13.0305 8.65263 12.4673 8.73079 12.2328 8.65501L13.3223 8.44439Z" fill="#9A7857"/>
<path d="M13.8092 9.19024L13.9894 9.47664C14.4303 10.315 14.4542 10.5495 14.5992 11.5167C14.3844 11.7267 14.2507 11.67 13.9643 11.6151C14.3044 11.3228 13.7644 9.65744 13.8092 9.19024Z" fill="#825434"/>
<path d="M13.9894 9.47664C14.1768 9.62998 14.3319 9.7875 14.5759 9.76423L14.6255 9.66161C14.5783 9.23916 14.237 8.61086 13.953 8.30476L13.9757 8.18841C14.5628 8.63532 14.7812 9.63177 14.9477 10.3442C14.9101 10.5924 14.7287 11.306 14.5992 11.5167C14.4542 10.5495 14.4303 10.315 13.9894 9.47664Z" fill="#4D3422"/>
<path d="M1.81897 3.33326C1.94547 3.08188 1.99858 2.92263 2.21815 2.7453C2.59346 2.67244 2.69072 3.00455 3.01829 3.19197C5.24568 4.46671 7.72964 5.831 10.3944 5.37079C11.1993 5.23176 12.5776 4.80717 13.2578 4.4053C13.4887 4.02743 13.5836 3.82206 13.7632 3.41399C14.0705 3.71084 14.2758 3.85273 14.4035 4.26431C14.5502 4.91558 14.5932 5.66334 14.3975 6.30924C14.1045 7.27824 13.382 7.28665 12.6087 7.57431C9.64139 8.67828 6.55419 8.17289 3.68299 7.0555C2.14834 6.45811 1.11788 4.9993 1.81897 3.33326Z" fill="#B19578"/>
<path d="M1.81909 3.33326C1.94559 3.08188 1.99869 2.92263 2.21827 2.7453C2.59358 2.67244 2.69083 3.00455 3.01841 3.19197C5.2458 4.46671 7.72976 5.831 10.3945 5.37079C11.1994 5.23176 12.5777 4.80717 13.258 4.40531C13.4889 4.02743 13.5837 3.82206 13.7633 3.41399C14.0706 3.71084 14.2759 3.85273 14.4036 4.26431C14.391 4.43806 14.3845 4.48842 14.3463 4.65824C14.1452 4.93647 13.9244 4.78688 13.6518 5.04089C13.3898 5.26357 13.317 5.81042 13.0408 5.98787C9.90106 8.00129 4.6533 6.86594 2.47066 3.91144C2.21588 3.5665 1.94141 3.65409 1.81909 3.33326Z" fill="#C5AC8E"/>
<path d="M8.04293 15.3509C7.89734 14.2751 9.07577 13.6486 9.94931 13.4201C9.99764 13.9511 9.99943 14.0866 9.86697 14.5824C9.69333 14.716 9.6462 14.8419 9.68498 15.0735C10.0311 15.1612 10.1361 15.1946 10.4016 15.4398C10.6146 15.5848 10.6015 15.5275 10.6755 15.7256C10.5836 15.9076 10.5687 15.9046 10.4165 16.0299C9.52387 16.9434 8.59665 16.1964 8.04293 15.3509Z" fill="#764C2D"/>
<path d="M8.04293 15.3509C7.89734 14.2751 9.07577 13.6486 9.94931 13.4201C9.99764 13.9511 9.99943 14.0866 9.86697 14.5824C9.69333 14.716 9.6462 14.8419 9.68498 15.0735C9.56028 15.1194 8.88961 15.2381 8.72373 15.219C8.60917 15.2053 8.63006 15.1725 8.53996 15.0448C8.35917 15.1695 8.24103 15.259 8.04293 15.3509Z" fill="#946743"/>
<path d="M8.54004 15.0448C8.59016 15.0048 8.64028 14.9655 8.691 14.9267C9.08123 14.6301 9.38254 14.5197 9.86704 14.5824C9.69341 14.716 9.64628 14.8419 9.68506 15.0734C9.56036 15.1194 8.88969 15.2381 8.72381 15.219C8.60925 15.2053 8.63014 15.1725 8.54004 15.0448Z" fill="#4D3422"/>
<path d="M10.4017 15.4398C10.6147 15.5848 10.6016 15.5275 10.6756 15.7256C10.5837 15.9076 10.5688 15.9046 10.4166 16.0299C10.2734 15.9547 10.3307 16.0061 10.2615 15.8539C10.2752 15.6403 10.3009 15.6254 10.4017 15.4398Z" fill="#825434"/>
<path d="M12.5092 11.497C12.5939 11.5143 12.5468 11.4946 12.6327 11.5883C12.5861 12.7524 11.5426 14.1946 11.2884 15.3157L11.2353 15.3229L11.0598 15.1504C10.8946 14.975 10.5497 14.6641 10.4966 14.4654C11.0413 13.0281 10.7185 12 12.5092 11.497Z" fill="#764C2D"/>
<path d="M13.4113 11.8896C13.6148 12.0268 13.8451 12.2321 13.888 12.4809C14.0157 13.2255 13.5473 14.6892 13.1708 15.2936C12.9632 15.3718 12.7418 15.4315 12.5288 15.4953C12.283 15.4768 12.1654 15.5037 12.0389 15.2793C12.0634 14.6247 13.0903 12.6796 13.4113 11.8896Z" fill="#946743"/>
<path d="M4.70459 0.824121C6.04771 1.23422 5.68254 1.7248 4.79708 2.41349C4.74039 2.46683 4.63777 2.55687 4.59063 2.61158C4.56497 2.82871 4.48084 3.04877 4.41401 3.26136C3.9844 2.73682 3.55301 2.53551 3.14966 1.95613C3.56196 1.25868 3.95039 1.02771 4.70459 0.824121Z" fill="#825434"/>
<path d="M4.59058 2.61158L4.44797 2.23389L4.57745 2.15715L4.43604 2.16205L4.5506 2.10805L4.51122 2.05065L4.64309 2.14206C4.68426 2.28502 4.69321 2.3071 4.79703 2.41349C4.74034 2.46683 4.63772 2.55687 4.59058 2.61158Z" fill="#6C472C"/>
<path d="M16.8009 13.7077C17.0712 13.7023 17.0504 13.7315 17.2425 13.8729C17.5599 14.5376 16.5659 15.1701 16.0271 15.2942C15.6356 15.3843 15.3719 15.3706 14.9835 15.3437C14.6595 15.2352 14.3504 15.16 14.3659 14.7662C14.6666 14.2447 16.1201 13.938 16.8009 13.7077Z" fill="#764C2D"/>
<path d="M9.30197 3.34418C9.76559 3.32432 11.0699 3.77033 10.9661 4.34075C10.6254 4.65866 10.1355 4.62751 9.65699 4.66803C9.16593 4.71558 8.39861 4.73993 8.13309 4.24755C8.12772 3.6825 8.82762 3.43178 9.30197 3.34418Z" fill="#825434"/>
<path d="M7.50356 0.769175C7.96419 0.751334 8.36516 0.771203 8.73033 1.06662C8.99346 1.28237 9.15754 1.59557 9.18618 1.9346C9.2011 2.10495 9.19931 2.29714 9.08773 2.43193L8.82997 2.37644C8.67065 2.34272 8.51194 2.30627 8.35382 2.26707C7.855 2.14135 7.2279 1.91425 6.95342 1.46072C6.91285 1.06858 7.16226 0.905754 7.50356 0.769175Z" fill="#764C2D"/>
<path d="M5.75166 2.49255C6.13891 2.49237 8.02023 2.47328 7.87225 3.10498C7.68549 3.30999 7.5208 3.36029 7.2702 3.47539C6.64488 3.66156 5.49509 3.75022 5.09949 3.1017C5.06011 2.73426 5.44199 2.57441 5.75166 2.49255Z" fill="#946743"/>
<path d="M15.5951 12.3502C16.255 12.2816 16.5194 12.6838 16.8738 13.1617C16.3224 13.2196 16.0313 13.2625 15.4937 13.3884C15.1595 13.4457 14.8158 13.5537 14.4877 13.6468C14.7043 12.8258 14.6738 12.4791 15.5951 12.3502Z" fill="#825434"/>
<path d="M10.4469 2.91004C10.7918 2.88247 12.1104 3.15849 12.4446 3.2727C12.4631 3.44275 12.3509 3.57325 12.2572 3.72993C12.1104 3.85744 12 3.97218 11.7924 3.91502C11.3503 3.79348 10.6874 3.27652 10.4469 2.91004Z" fill="#764C2D"/>
<path d="M6.19205 1.13935L6.28394 1.13094L6.36866 1.20666C6.44385 1.55601 6.49695 1.88179 6.13119 2.038C5.55957 1.82344 5.45575 1.26919 6.19205 1.13935Z" fill="#6C472C"/>
</g>
<defs>
<clipPath id="clip0_179_2742">
<rect width="18" height="18" fill="white"/>
</clipPath>
</defs>
</svg>
